<?xml version="1.0" standalone="no"?>
<!DOCTYPE svg PUBLIC "-//W3C//DTD SVG 20010904//EN"
 "http://www.w3.org/TR/2001/REC-SVG-20010904/DTD/svg10.dtd">
<svg version="1.0" xmlns="http://www.w3.org/2000/svg"
 width="479.000000pt" height="479.000000pt" viewBox="0 0 479.000000 479.000000"
 preserveAspectRatio="xMidYMid meet">
<metadata>
Created by potrace 1.11, written by Peter Selinger 2001-2013
</metadata>
<g transform="translate(0.000000,479.000000) scale(0.100000,-0.100000)"
fill="#000000" stroke="none">
<path d="M2004 4768 c-4 -6 -7 -238 -7 -515 l0 -504 -31 -22 c-78 -56 -37 -73
-481 193 -221 132 -407 240 -413 240 -15 0 -26 -38 -37 -124 -3 -22 -10 -58
-16 -80 -5 -23 -11 -54 -13 -71 -9 -71 -18 -122 -24 -132 -4 -5 -68 -58 -142
-117 -136 -109 -180 -149 -180 -163 0 -5 198 -126 440 -271 l440 -263 -4 -50
c-3 -27 -8 -54 -11 -58 -2 -5 -204 -9 -447 -9 -244 -1 -474 -1 -512 -1 l-68
-1 5 -27 c5 -30 44 -147 58 -175 5 -10 24 -58 43 -108 l34 -90 -69 -183 c-70
-186 -78 -217 -56 -217 6 -1 238 -1 515 -2 l502 0 1 -27 c1 -14 3 -41 5 -58
l4 -33 -440 -262 c-299 -179 -440 -268 -438 -278 2 -8 74 -71 160 -140 87 -69
160 -134 163 -145 3 -11 7 -33 10 -49 2 -16 9 -54 16 -84 6 -29 8 -56 5 -59
-3 -4 -1 -12 5 -19 6 -8 9 -20 6 -29 -4 -8 -2 -17 4 -21 6 -3 9 -16 8 -27 -1
-12 1 -29 4 -37 3 -8 8 -28 12 -44 4 -20 11 -27 23 -24 9 3 192 109 405 237
l388 232 32 -24 c18 -13 46 -31 63 -40 l31 -16 1 -488 c0 -601 -2 -543 20
-543 9 0 63 18 120 39 56 22 104 39 105 39 1 1 16 6 32 12 17 6 51 20 77 30
l48 18 92 -35 c51 -19 97 -38 103 -41 5 -4 17 -7 25 -9 9 -1 34 -10 55 -19 22
-10 42 -18 45 -19 3 -1 13 -5 22 -9 9 -4 27 -6 39 -4 l23 3 -1 513 0 513 31
16 c17 9 45 26 61 39 l30 22 390 -234 c215 -128 395 -234 401 -234 15 0 25 24
30 75 3 22 7 47 11 55 3 8 6 24 7 35 4 33 28 169 33 185 3 8 6 25 7 37 1 12
13 31 26 41 219 175 295 240 298 252 2 10 -136 97 -432 274 l-435 260 2 60 2
61 470 2 c259 1 489 2 513 2 33 1 42 5 42 18 0 15 -48 155 -71 208 -5 11 -22
55 -38 98 -29 75 -29 79 -14 115 9 20 17 42 19 47 1 6 13 40 27 75 76 196 88
239 70 241 -5 0 -235 1 -513 2 l-505 2 0 40 c-1 22 -5 47 -10 54 -5 9 -2 19
11 28 10 7 209 127 441 266 233 138 423 257 423 264 0 12 -27 35 -218 188
-106 84 -109 90 -126 200 -2 17 -9 54 -15 84 -6 30 -9 56 -6 59 3 3 1 10 -4
16 -5 6 -11 31 -14 56 -6 55 -16 80 -31 80 -6 0 -191 -108 -410 -239 l-399
-240 -51 30 -51 29 -1 510 c0 292 -5 515 -10 519 -5 5 -92 -22 -202 -64 l-193
-73 -62 24 c-34 14 -91 36 -127 48 -36 13 -95 35 -132 49 -47 18 -70 23 -74
15z"/>
</g>
</svg>
